<svg width="512" height="512" xmlns="http://www.w3.org/2000/svg" preserveAspectRatio="xMidYMid meet">

 <g>
  <title>background</title>
  <rect fill="none" id="canvas_background" height="402" width="582" y="-1" x="-1"/>
 </g>
 <g>
  <title>Layer 1</title>
  <path fill="#4c4c4c" id="svg_2" d="m460.500007,73.399993c-10.5,3.3 -10.9,3.6 -144.500002,137.200002l-131.500002,131.400002l-59.500001,-59.500001c-55.300001,-55.100001 -60.000001,-59.600001 -66.200001,-62.500001c-15.9,-7.4 -32.8,-5.1 -45.400001,6.3c-10,9 -14.9,23.4 -12.5,36.400001c2.5,13.4 0.9,11.7 83.900001,94.400001c72.600001,72.400001 77.100001,76.700001 83.200001,79.400001c7.8,3.4 18.5,4.4 25.7,2.5c12.2,-3.3 7,1.6 162.900002,-154.300002c161.400002,-161.600002 152.200002,-151.700002 154.700002,-166.000002c3.4,-19.9 -9.1,-39.200001 -29.2,-45.300001c-5.6,-1.7 -16.2,-1.7 -21.6,0z"/>
 </g>
</svg>