<svg width="512" height="512" xmlns="http://www.w3.org/2000/svg" preserveAspectRatio="xMidYMid meet">

 <g>
  <title>background</title>
  <rect fill="none" id="canvas_background" height="402" width="582" y="-1" x="-1"/>
 </g>
 <g>
  <title>Layer 1</title>
  <path fill="#585959" id="svg_2" d="m182.000003,0.599992c-29.7,3.5 -51.200001,10.4 -72.000001,23.2c-34.500001,21.2 -59.400001,52.700001 -71.900001,90.900001c-7,21.3 -8.1,33.5 -8.1,87.200001l0,42.600001l-5.7,3c-11.4,5.9 -20.5,17.9 -23.2,30.3c-1.5,7 -1.6,189.500003 -0.1,197.300003c3.4,18 17.9,32.5 35.900001,35.900001c7.4,1.4 308.800005,1.4 316.200005,0c18,-3.4 32.5,-17.9 35.900001,-35.900001c1.4,-7.3 1.4,-188.900003 0,-196.200003c-3.4,-18 -17.9,-32.5 -35.900001,-35.900001c-3.5,-0.6 -46.000001,-1 -119.300002,-1l-113.900002,0l0.4,-45.300001c0.4,-48.200001 0.3,-47.900001 5.7,-60.700001c7.3,-17.3 22.7,-32.6 40.500001,-40.200001c9.7,-4.1 16.2,-5.3 28.5,-5.3c6.5,0 13.9,0.6 17,1.4c22.9,5.8 42.900001,22.7 52.000001,44.100001c4.7,11.3 5.2,14.5 5.7,39.000001c0.6,26.9 1.2,29.4 8.3,33c3.7,1.9 5.8,2 37.000001,2c31.2,0 33.3,-0.1 37.000001,-2c2.6,-1.4 4.7,-3.4 6.1,-6.2c2.1,-4.1 2.1,-5 1.6,-30.3c-0.6,-26.6 -1.6,-35.100001 -5.7,-49.900001c-11.4,-41.000001 -37.400001,-75.300001 -74.000001,-97.800001c-16.9,-10.4 -40.000001,-18.8 -60.000001,-21.8c-8,-1.2 -32.2,-2.1 -38.000001,-1.4zm21.1,302.400005c18.7,3.6 33,18.4 36.100001,37.600001c3,18.1 -6.8,37.200001 -23.5,45.900001l-5.7,3l0,25.3c0,23.4 -0.2,25.6 -2,29.2c-2.3,4.5 -8,8 -13,8c-5,0 -10.7,-3.5 -13,-8c-1.8,-3.6 -2,-5.8 -2,-29.2l0,-25.3l-5.7,-3c-16.7,-8.7 -26.5,-27.8 -23.5,-45.900001c4.2,-25.5 27.6,-42.300001 52.300001,-37.600001z"/>
  <path fill="#4c4c4c" id="svg_3" d="m459.800007,137.699994c-31.4,15.8 -33.4,17 -35.500001,20.8c-4.3,7.6 -2,16 5.3,20.2c7.2,4.2 8.4,3.8 44.600001,-14.5c31.4,-15.7 33.4,-16.9 35.500001,-20.7c2.8,-5 2.9,-9.4 0.3,-14.5c-2.3,-4.6 -8.1,-8 -13.4,-8c-2.5,0 -12.8,4.7 -36.800001,16.7z"/>
  <path fill="#666666" id="svg_4" d="m429.800006,213.099996c-4.3,2.2 -7.8,8.1 -7.8,12.9c0,5 3.5,10.7 8,13c3.7,1.9 5.8,2 37.000001,2c31.2,0 33.3,-0.1 37.000001,-2c4.5,-2.3 8,-8 8,-13c0,-5 -3.5,-10.7 -8,-13c-3.7,-1.9 -5.8,-2 -37.200001,-2c-31.2,0.1 -33.5,0.2 -37.000001,2.1z"/>
  <path fill="#666666" id="svg_5" d="m429.600006,273.299996c-7.3,4.2 -9.6,12.6 -5.3,20.2c2.1,3.8 4.1,5 35.500001,20.7c24,12.1 34.300001,16.8 36.800001,16.8c5.3,0 11.1,-3.4 13.4,-8c2.6,-5.1 2.5,-9.5 -0.3,-14.5c-2.1,-3.8 -4.1,-5 -35.500001,-20.8c-36.200001,-18.2 -37.400001,-18.6 -44.600001,-14.4z"/>
 </g>
</svg>