<svg width="512" height="512" xmlns="http://www.w3.org/2000/svg" preserveAspectRatio="xMidYMid meet">

 <g>
  <title>background</title>
  <rect fill="none" id="canvas_background" height="402" width="582" y="-1" x="-1"/>
 </g>
 <g>
  <title>Layer 1</title>
  <path fill="#ffffff" id="svg_2" d="m66.100001,1.499992c-15,3.3 -25.4,8.3 -36.300001,17.5c-11.7,9.7 -20.9,23.7 -25.5,38.500001l-2.8,9l0,189.500003l0,189.500003l2.8,9c8,25.9 28.3,46.200001 54.200001,54.200001l9,2.8l114.000002,0l114.000002,0l9,-2.8c25.9,-8 46.300001,-28.4 54.200001,-54.200001c2.7,-9 2.7,-9.1 2.8,-39.000001c0,-29.9 0,-30 -2.4,-33.800001c-1.3,-2.1 -4.2,-5 -6.4,-6.5c-3.4,-2.3 -5.2,-2.7 -10.7,-2.7c-5.5,0 -7.3,0.4 -10.7,2.7c-2.2,1.5 -5.1,4.4 -6.4,6.5c-2.3,3.7 -2.4,4.6 -3,31.3c-0.5,25.5 -0.7,27.9 -2.8,33.3c-4.3,11 -13.2,19.5 -24.5,23.4c-4.8,1.7 -11.8,1.8 -113.600002,1.8l-108.500002,0l-5.8,-2.3c-11.1,-4.5 -19.5,-13.3 -23.4,-24.6c-1.7,-4.8 -1.8,-14.6 -1.8,-188.600003c0,-174.000003 0.1,-183.800003 1.8,-188.600003c3.9,-11.3 12.3,-20.1 23.4,-24.6l5.8,-2.3l108.500002,0c101.800002,0 108.800002,0.1 113.600002,1.8c11.3,3.9 20.2,12.4 24.5,23.4c2.1,5.4 2.3,7.8 2.8,33.4l0.6,27.6l2.7,4c4.1,6.2 9,8.8 16.8,8.8c7.8,0 12.7,-2.6 16.8,-8.8l2.7,-4.1l0,-30c-0.1,-30 -0.1,-30.1 -2.8,-39.100001c-7.9,-25.8 -28.3,-46.200001 -54.200001,-54.200001l-9,-2.8l-111.500002,-0.2c-92.400001,-0.1 -112.600002,0.1 -117.900002,1.2z"/>
  <path fill="#ffffff" id="svg_3" d="m431.500006,172.899995c-8.8,4.1 -13.3,13.1 -11.3,22.7c0.9,4.6 2.3,6.2 19.1,23.1l18.1,18.3l-123.500002,0.2l-123.500002,0.3l-4.1,2.7c-6.3,4.1 -8.8,9 -8.8,16.9c0,5.4 0.5,7.2 2.7,10.6c1.5,2.2 4.4,5.1 6.5,6.4l3.8,2.4l123.400002,0.3l123.500002,0.2l-18.1,18.3c-16.8,16.9 -18.2,18.5 -19.1,23.1c-3.4,16.2 12.6,29.5 27.3,22.7c2.6,-1.2 13.2,-11.2 30.6,-28.7c24.7,-25 26.8,-27.4 30,-34.400001c3.3,-7.4 3.4,-7.7 3.4,-21c0,-13.3 -0.1,-13.6 -3.4,-21c-3.2,-7 -5.3,-9.4 -30,-34.400001c-17.4,-17.5 -28,-27.5 -30.6,-28.7c-5.1,-2.4 -10.9,-2.4 -16,0z"/>
 </g>
</svg>