<svg width="512" height="512" xmlns="http://www.w3.org/2000/svg" preserveAspectRatio="xMidYMid meet">

 <g>
  <title>background</title>
  <rect fill="none" id="canvas_background" height="402" width="582" y="-1" x="-1"/>
 </g>
 <g>
  <title>Layer 1</title>
  <path fill="#4c4c4c" id="svg_2" d="m227.000003,28.499993c-76.900001,10.3 -142.900002,57.500001 -176.500003,126.000002c-10.7,22 -17.1,41.700001 -21.2,66.300001c-2.6,15.2 -2.6,55.200001 0,70.400001c4.1,24.5 10.4,44.100001 21.2,66.300001c31,63.400001 91.400001,109.700002 161.000002,123.400002c33.3,6.5 70.600001,5.3 103.900002,-3.4c52.400001,-13.7 100.400001,-48.100001 131.200002,-94.200001c42.800001,-64.000001 50.500001,-146.700002 20.3,-217.000003c-30.8,-72.000001 -94.800001,-122.700002 -171.900003,-136.300002c-16.1,-2.9 -52.000001,-3.6 -68.000001,-1.5zm52.000001,31.6c23.2,2.8 42.400001,8.6 63.500001,18.9c57.600001,28.3 96.000001,79.400001 108.100002,144.000002c2.2,11.6 3,42.300001 1.5,54.700001c-2.8,22.8 -8.7,43.200001 -18.2,63.100001c-29.2,61.600001 -87.800001,103.200002 -156.300002,111.300002c-12.6,1.5 -43.100001,0.6 -54.600001,-1.5c-43.200001,-8.1 -78.600001,-26.9 -108.700002,-57.700001c-15.7,-16.1 -25.1,-29.6 -35.300001,-50.400001c-14,-28.5 -20,-54.600001 -20,-86.500001c0,-32 6.1,-58.200001 20,-86.500001c20,-40.700001 49.700001,-70.400001 90.500001,-90.500001c20.4,-10 40.500001,-16.1 62.500001,-18.9c9.6,-1.2 37.300001,-1.3 47.000001,0z"/>
  <path fill="#4c4c4c" id="svg_3" d="m250.700004,134.399994c-4.9,1.8 -6.4,3.2 -8.8,7.7c-1.8,3.7 -1.9,6.8 -1.9,81.900001c0,75.700001 0.1,78.200001 2,81.900001c5.7,11.3 22.3,11.3 28,0c1.9,-3.7 2,-6.2 2,-81.900001c0,-75.700001 -0.1,-78.200001 -2,-81.900001c-3.5,-6.9 -12.1,-10.3 -19.3,-7.7z"/>
  <path fill="#666666" id="svg_4" d="m251.000004,341.899997c-10.5,3.4 -16,10.6 -16,21.1c0,5.8 2.3,11.1 6.7,15.2c10.4,9.9 27.3,6.5 33.4,-6.7c3.4,-7.4 1.9,-17.6 -3.4,-23.3c-4.7,-5.1 -14.9,-8.2 -20.7,-6.3z"/>
 </g>
</svg>